<svg width="1024" height="1024" viewBox="0 0 1024 1024" fill="none" xmlns="http://www.w3.org/2000/svg">
<path d="M238.5 356C240.788 355.91 243.075 355.82 245.432 355.728C248.041 355.699 250.65 355.669 253.338 355.639C256.197 355.635 259.056 355.631 262.002 355.627C266.637 355.643 266.637 355.643 271.365 355.659C272.987 355.66 274.609 355.66 276.28 355.661C278.782 355.659 278.782 355.659 281.333 355.658C283.042 355.658 284.751 355.658 286.512 355.658C288.259 355.658 290.007 355.659 291.807 355.66C293.591 355.663 295.376 355.667 297.214 355.67C299.027 355.674 300.84 355.678 302.708 355.683C304.545 355.687 306.382 355.691 308.274 355.696C311.048 355.701 311.048 355.701 313.879 355.707C315.726 355.709 317.573 355.711 319.476 355.712C322.259 355.714 322.259 355.714 325.098 355.715C327.903 355.717 327.903 355.717 330.764 355.718C333.59 355.719 333.59 355.719 336.473 355.72C339.325 355.721 339.325 355.721 342.235 355.723C345.11 355.725 345.11 355.725 348.044 355.727C350.939 355.729 350.939 355.729 353.893 355.731C355.838 355.733 357.783 355.734 359.787 355.736C361.749 355.739 363.71 355.742 365.732 355.744C367.706 355.747 369.68 355.75 371.714 355.754C374.691 355.758 374.691 355.758 377.727 355.763C379.719 355.767 381.712 355.77 383.764 355.774C386.761 355.779 386.761 355.779 389.818 355.784C392.823 355.789 392.823 355.789 395.888 355.794C397.895 355.797 399.902 355.8 401.97 355.804C404.986 355.808 404.986 355.808 408.062 355.812C410.077 355.815 412.091 355.817 414.166 355.819C416.181 355.821 418.195 355.823 420.271 355.825C422.282 355.827 424.294 355.829 426.367 355.83C429.379 355.833 429.379 355.833 432.452 355.835C435.456 355.838 435.456 355.838 438.52 355.84C441.511 355.842 441.511 355.842 444.563 355.845C447.538 355.847 447.538 355.847 450.573 355.849C453.525 355.851 453.525 355.851 456.537 355.853C459.457 355.856 459.457 355.856 462.436 355.858C464.365 355.86 466.294 355.861 468.282 355.863C470.196 355.865 472.111 355.866 474.083 355.868C476.93 355.87 476.93 355.87 479.834 355.873C482.652 355.875 482.652 355.875 485.527 355.878C487.392 355.88 489.256 355.881 491.177 355.883C493.027 355.885 494.878 355.887 496.785 355.889C499.554 355.892 499.554 355.892 502.379 355.895C505.166 355.898 505.166 355.898 508.01 355.901C509.857 355.904 511.705 355.906 513.609 355.908C515.432 355.911 517.255 355.913 519.134 355.916C520.923 355.918 522.712 355.92 524.555 355.923C526.293 355.925 528.032 355.928 529.823 355.93C531.517 355.933 533.211 355.935 534.957 355.938C536.606 355.94 538.255 355.943 539.954 355.945C542.37 355.949 542.37 355.949 544.834 355.952C549.521 355.959 549.521 355.959 554.302 355.967C557.113 355.971 559.924 355.975 562.821 355.98C566.515 355.986 566.515 355.986 570.284 355.992C572.006 355.994 573.727 355.997 575.5 356C576.428 358.001 577.356 360.001 578.312 362.062C579.89 365.497 579.89 365.497 581.5 369C582.49 371.31 583.48 373.62 584.5 376C584.83 377.98 585.16 379.96 585.5 382C583.85 383.65 582.2 385.3 580.5 387C578.85 387.784 577.2 388.567 575.5 389.375C573.19 390.241 570.88 391.107 568.5 392C566.863 392.583 565.226 393.165 563.539 393.766C561.752 394.379 559.966 394.993 558.125 395.625C556.311 396.219 554.498 396.813 552.629 397.426C550.936 397.945 549.244 398.465 547.5 399C545.046 399.598 542.591 400.196 540.062 400.812C537.897 401.204 535.731 401.596 533.5 402C531.597 402.349 529.693 402.697 527.732 403.056C525.015 403.368 522.299 403.679 519.5 404C517.665 404.063 515.831 404.125 513.94 404.19C511.852 404.215 509.763 404.24 507.611 404.265C505.329 404.273 503.048 404.282 500.697 404.29C498.232 404.289 495.767 404.288 493.228 404.287C490.601 404.294 487.975 404.301 485.27 404.308C481.129 404.318 481.129 404.318 476.905 404.328C472.594 404.332 472.594 404.332 468.197 404.335C463.776 404.34 463.776 404.34 459.266 404.344C456.3 404.35 453.335 404.357 450.279 404.364C445.765 404.376 445.765 404.376 441.16 404.388C438.098 404.396 435.036 404.403 431.881 404.411C428.773 404.419 425.664 404.426 422.461 404.434C420.1 404.438 420.1 404.438 417.691 404.443C415.314 404.447 415.314 404.447 412.89 404.452C411.298 404.455 409.705 404.457 408.065 404.46C406.467 404.463 404.868 404.465 403.222 404.468C401.619 404.471 400.017 404.474 398.365 404.476C396.76 404.479 395.154 404.482 393.499 404.484C391.087 404.488 391.087 404.488 388.626 404.492C387.017 404.495 385.408 404.497 383.75 404.5C382.142 404.503 380.534 404.505 378.877 404.508C377.27 404.51 375.664 404.513 374.009 404.516C372.405 404.518 370.801 404.521 369.149 404.524C367.549 404.526 365.948 404.529 364.3 404.532C361.906 404.536 361.906 404.536 359.464 404.54C357.874 404.543 356.284 404.545 354.646 404.548C353.064 404.551 351.482 404.554 349.851 404.557C348.279 404.56 346.706 404.563 345.086 404.566C340.423 404.577 340.423 404.577 335.666 404.589C331.071 404.6 331.071 404.6 326.383 404.612C323.371 404.62 320.359 404.628 317.256 404.636C314.289 404.643 311.322 404.649 308.266 404.656C305.323 404.659 302.38 404.662 299.349 404.664C296.478 404.667 293.608 404.67 290.651 404.672C287.885 404.679 285.119 404.685 282.269 404.692C279.636 404.699 277.003 404.706 274.29 404.713C271.833 404.712 269.377 404.711 266.846 404.71C263.406 404.722 263.406 404.722 259.897 404.735C256.702 404.772 256.702 404.772 253.442 404.81C251.481 404.873 249.52 404.935 247.5 405C245.704 405.138 243.908 405.276 242.058 405.419C240.456 405.59 238.854 405.761 237.203 405.937C234.661 406.288 232.119 406.639 229.5 407C227.506 407.428 225.512 407.856 223.457 408.297C221.759 408.776 220.062 409.256 218.312 409.75C215.53 410.554 215.53 410.554 212.691 411.375C210.978 411.911 209.265 412.447 207.5 413C203.664 414.361 203.664 414.361 199.75 415.75C197.357 416.822 194.965 417.895 192.5 419C190.292 420.114 190.292 420.114 188.039 421.25C186.5 422.075 184.961 422.9 183.375 423.75C181.873 424.605 180.371 425.459 178.824 426.34C177.397 427.218 175.97 428.096 174.5 429C172.087 430.753 169.674 432.506 167.188 434.312C165.311 435.859 163.434 437.406 161.5 439C159.85 440.65 158.2 442.3 156.5 444C155.364 445.101 154.229 446.202 153.059 447.336C151.884 448.545 150.71 449.754 149.5 451C148.001 452.845 148.001 452.845 146.473 454.727C145.512 456.013 144.552 457.299 143.562 458.625C142.533 460.02 141.503 461.414 140.441 462.852C139.471 464.221 138.5 465.59 137.5 467C136.015 469.31 134.53 471.62 133 474C131.845 475.98 130.69 477.96 129.5 480C128.18 482.64 126.86 485.28 125.5 488C124.531 490.248 123.561 492.496 122.562 494.812C121.552 497.514 120.541 500.216 119.5 503C118.777 505.432 118.777 505.432 118.039 507.914C117.593 509.572 117.147 511.23 116.688 512.937C115.966 515.928 115.244 518.919 114.5 522C114.005 525.96 114.005 525.96 113.5 530C113.421 532.07 113.343 534.14 113.262 536.273C113.225 539.789 113.225 539.789 113.188 543.375C113.199 545.862 113.211 548.348 113.223 550.91C113.314 553.25 113.406 555.589 113.5 558C113.838 560.628 113.838 560.628 114.184 563.309C114.494 564.795 114.805 566.281 115.125 567.812C115.909 570.514 116.693 573.216 117.5 576C118.83 579.805 118.83 579.805 120.188 583.687C121.281 586.101 122.374 588.514 123.5 591C124.882 593.516 126.264 596.032 127.688 598.625C129.276 601.059 130.864 603.492 132.5 606C134.459 608.372 136.419 610.744 138.438 613.187C140.108 615.106 141.779 617.024 143.5 619C144.16 620.32 144.82 621.64 145.5 623C146.82 623.66 148.14 624.32 149.5 625C150.738 626.176 151.975 627.351 153.25 628.562C154.982 630.027 156.715 631.491 158.5 633C162.274 635.289 162.274 635.289 166.125 637.625C168.889 639.069 171.652 640.512 174.5 642C177.119 643.134 179.739 644.269 182.438 645.437C184.768 646.283 187.099 647.129 189.5 648C192.47 648.66 195.44 649.32 198.5 650C201.559 650.131 201.559 650.131 204.68 650.266C206.889 650.26 209.099 650.255 211.375 650.25C214.681 650.258 214.681 650.258 218.055 650.266C220.182 650.178 222.309 650.09 224.5 650C226.377 649.728 228.254 649.456 230.188 649.176C232.817 648.594 232.817 648.594 235.5 648C237.173 647.535 238.846 647.069 240.57 646.59C243.072 645.772 243.072 645.772 245.625 644.937C247.449 644.311 249.273 643.685 251.152 643.039C252.917 642.366 254.682 641.693 256.5 641C257.986 640.327 259.473 639.654 261.004 638.961C263.075 637.897 263.075 637.897 265.188 636.812C266.546 636.056 267.905 635.299 269.305 634.52C270.689 633.688 272.074 632.857 273.5 632C275.793 630.552 275.793 630.552 278.133 629.074C279.677 628.06 281.221 627.045 282.812 626C285.061 624.469 285.061 624.469 287.355 622.906C288.723 621.947 290.091 620.988 291.5 620C294.532 617.772 294.532 617.772 297.625 615.5C299.564 614.015 301.503 612.53 303.5 611C304.765 610.064 306.029 609.128 307.332 608.164C308.687 607.161 310.042 606.158 311.438 605.125C312.788 604.113 314.139 603.101 315.531 602.059C316.841 601.049 318.151 600.04 319.5 599C322.934 596.123 322.934 596.123 326.438 593.187C328.438 591.476 330.439 589.764 332.5 588C334.047 586.783 335.594 585.566 337.188 584.312C338.611 583.219 340.034 582.126 341.5 581C343.068 579.762 344.635 578.525 346.25 577.25C347.983 575.847 349.715 574.445 351.5 573C353.624 571.206 355.749 569.411 357.938 567.562C360.103 565.727 362.269 563.891 364.5 562C366.274 560.536 368.047 559.071 369.875 557.562C371.731 556.057 373.587 554.551 375.5 553C377.851 551.102 380.203 549.205 382.625 547.25C383.895 546.238 385.164 545.226 386.473 544.184C387.802 543.133 389.131 542.082 390.5 541C391.901 539.898 393.302 538.796 394.746 537.66C396.171 536.555 397.595 535.451 399.062 534.312C400.484 533.235 401.906 532.157 403.371 531.047C404.734 530.041 406.096 529.036 407.5 528C409.851 526.371 412.203 524.741 414.625 523.062C416.894 521.722 419.163 520.381 421.5 519C424.161 517.845 426.821 516.69 429.562 515.5C431.852 514.675 434.141 513.85 436.5 513C438.15 512.67 439.8 512.34 441.5 512C443.278 511.933 445.055 511.866 446.887 511.797C448.966 511.781 451.045 511.766 453.188 511.75C455.254 511.724 457.32 511.698 459.449 511.672C462.444 511.834 462.444 511.834 465.5 512C468.186 512.667 468.186 512.667 470.926 513.348C472.435 513.893 473.945 514.438 475.5 515C478.223 516.33 478.223 516.33 481 517.687C482.815 518.781 484.63 519.874 486.5 521C488.233 522.258 489.965 523.516 491.75 524.812C493.318 526.194 494.885 527.576 496.5 529C497.758 530.464 499.016 531.929 500.312 533.437C501.364 534.943 502.416 536.449 503.5 538C504.469 539.567 505.439 541.135 506.438 542.75C507.118 544.152 507.799 545.555 508.5 547C508.5 548.65 508.5 550.3 508.5 552C505.223 552.147 505.223 552.147 501.879 552.297C497.515 552.521 497.515 552.521 493.062 552.75C490.049 552.936 487.035 553.121 483.93 553.312C481.148 553.539 478.366 553.766 475.5 554C473.667 554.268 471.834 554.536 469.945 554.812C468.54 555.122 467.135 555.431 465.688 555.75C463.316 556.492 460.944 557.235 458.5 558C455.344 559.392 455.344 559.392 452.125 560.812C450.269 561.864 448.413 562.916 446.5 564C444.685 565.093 442.87 566.186 441 567.312C439.185 568.529 437.37 569.746 435.5 571C432.499 573.166 432.499 573.166 429.438 575.375C427.478 576.901 425.519 578.427 423.5 580C421.829 581.506 420.159 583.011 418.438 584.562C416.808 586.027 415.179 587.491 413.5 589C411.644 590.341 409.788 591.681 407.875 593.062C405.214 595.012 405.214 595.012 402.5 597C401.18 598.299 399.86 599.599 398.5 600.937C397.18 602.278 395.86 603.619 394.5 605C392.767 606.423 391.035 607.846 389.25 609.312C387.353 610.859 385.455 612.406 383.5 614C381.52 615.815 379.54 617.63 377.5 619.5C375.52 621.315 373.54 623.13 371.5 625C369.664 626.506 367.829 628.011 365.938 629.562C364.143 631.027 362.349 632.491 360.5 634C358.685 635.65 356.87 637.3 355 639C353.185 640.65 351.37 642.3 349.5 644C347.747 645.444 345.994 646.887 344.188 648.375C342.311 649.901 340.434 651.427 338.5 653C336.231 654.959 333.962 656.919 331.625 658.937C329.274 660.938 326.923 662.939 324.5 665C322.396 666.671 320.292 668.341 318.125 670.062C315.939 671.692 313.753 673.321 311.5 675C310.255 675.896 309.01 676.792 307.727 677.715C306.414 678.634 305.102 679.553 303.75 680.5C302.402 681.414 301.053 682.328 299.664 683.27C297.603 684.621 297.603 684.621 295.5 686C294.126 686.87 292.752 687.74 291.336 688.637C289.946 689.478 288.557 690.32 287.125 691.187C285.715 691.998 284.305 692.809 282.852 693.645C281.416 694.422 279.98 695.199 278.5 696C277.023 696.746 275.545 697.493 274.023 698.262C271.784 699.308 271.784 699.308 269.5 700.375C268.016 701.014 266.533 701.654 265.004 702.312C262.774 703.148 262.774 703.148 260.5 704C257.509 704.784 254.519 705.567 251.438 706.375C247.508 707.179 247.508 707.179 243.5 708C240.53 708.66 237.56 709.32 234.5 710C232.932 710.206 231.365 710.412 229.75 710.625C227.688 710.749 225.625 710.872 223.5 711C221.971 711.066 220.442 711.131 218.867 711.199C217.137 711.237 215.407 711.274 213.625 711.312C211.804 711.3 209.982 711.287 208.105 711.273C206.256 711.183 204.406 711.093 202.5 711C200.743 710.786 198.986 710.572 197.176 710.352C195.447 710.05 193.719 709.748 191.938 709.437C190.211 709.07 188.485 708.703 186.707 708.324C184.989 707.887 183.27 707.45 181.5 707C179.771 706.491 178.043 705.982 176.262 705.457C174.567 704.894 172.871 704.33 171.125 703.75C169.485 703.143 167.846 702.536 166.156 701.91C164.62 701.28 163.083 700.649 161.5 700C158.901 698.742 156.302 697.484 153.625 696.187C151.274 694.806 148.923 693.424 146.5 692C144.293 690.597 142.086 689.195 139.812 687.75C137.399 685.852 134.986 683.955 132.5 682C130.882 680.519 129.264 679.038 127.598 677.512C125.012 675 125.012 675 122.375 672.437C120.675 670.699 118.974 668.96 117.223 667.168C114.885 664.61 114.885 664.61 112.5 662C111.302 660.511 110.105 659.022 108.871 657.488C107.862 656.09 106.852 654.691 105.812 653.25C104.895 651.867 103.977 650.484 103.031 649.059C102.196 647.719 101.361 646.38 100.5 645C98.1797 641.195 98.1797 641.195 95.8125 637.312C94.3894 634.569 92.9662 631.826 91.5 629C90.715 627.264 89.9299 625.527 89.1211 623.738C88.3386 621.886 87.5562 620.033 86.75 618.125C86.0088 616.246 85.2676 614.366 84.5039 612.43C83.8426 610.638 83.1813 608.846 82.5 607C81.5719 604.112 80.6438 601.225 79.6875 598.25C79.3162 596.791 78.945 595.332 78.5625 593.828C78.2119 592.235 77.8612 590.642 77.5 589C77.1081 587.118 76.7162 585.236 76.3125 583.297C75.9413 581.219 75.57 579.141 75.1875 577C74.8717 574.794 74.5559 572.589 74.2305 570.316C73.9894 567.902 73.7484 565.488 73.5 563C73.3724 560.245 73.2448 557.491 73.1133 554.652C73.0759 551.776 73.0385 548.901 73 545.937C73.0387 543.065 73.0773 540.193 73.1172 537.234C73.2435 534.517 73.3698 531.8 73.5 529C73.7295 526.695 73.9589 524.39 74.1953 522.016C74.5021 519.927 74.8089 517.839 75.125 515.687C75.4898 513.718 75.8546 511.748 76.2305 509.719C76.6494 507.832 77.0684 505.944 77.5 504C77.9705 502.092 78.441 500.184 78.9258 498.219C79.6741 495.481 79.6741 495.481 80.4375 492.687C80.957 490.979 81.4765 489.271 82.0117 487.512C82.5029 486.023 82.994 484.534 83.5 483C84.2425 481.02 84.985 479.04 85.75 477C86.6575 475.02 87.565 473.04 88.5 471C89.1742 469.465 89.8484 467.929 90.543 466.348C91.3332 464.604 92.1234 462.859 92.9375 461.062C93.8012 459.262 94.6648 457.461 95.5547 455.605C96.5266 453.756 97.4986 451.906 98.5 450C99.637 448.14 100.774 446.28 101.945 444.363C103.139 442.552 104.333 440.741 105.562 438.875C106.765 437.133 107.968 435.392 109.207 433.598C110.294 432.08 111.38 430.563 112.5 429C113.903 427.123 115.305 425.246 116.75 423.312C118.318 421.559 119.885 419.806 121.5 418C122.828 416.591 124.155 415.182 125.523 413.73C127.042 412.169 128.56 410.608 130.125 409C131.698 407.451 133.27 405.901 134.891 404.305C136.412 402.884 137.933 401.464 139.5 400C143.151 397.092 143.151 397.092 146.875 394.125C149.391 392.434 151.908 390.742 154.5 389C156.884 387.49 156.884 387.49 159.316 385.949C161.006 384.914 162.696 383.879 164.438 382.812C166.129 381.817 167.82 380.822 169.562 379.797C171.192 378.874 172.821 377.951 174.5 377C175.944 376.221 177.387 375.443 178.875 374.641C180.216 373.955 181.556 373.269 182.938 372.562C185.433 371.387 187.929 370.211 190.5 369C192.604 368.113 194.707 367.226 196.875 366.312C199.061 365.549 201.247 364.786 203.5 364C206.387 363.134 209.275 362.267 212.25 361.375C213.606 360.991 214.962 360.607 216.359 360.211C218.056 359.811 219.752 359.412 221.5 359C223.733 358.487 225.966 357.974 228.267 357.446C230.55 357.051 230.55 357.051 232.879 356.648C234.734 356.434 236.589 356.22 238.5 356Z" fill="white"/>
<path d="M225.5 429C239.69 429 253.88 429 268.5 429C268.5 447.15 268.5 465.3 268.5 484C286.32 484 304.14 484 322.5 484C322.5 500.5 322.5 517 322.5 534C305.01 534.33 287.52 534.66 269.5 535C269.17 553.15 268.84 571.3 268.5 590C254.31 590 240.12 590 225.5 590C225.17 571.85 224.84 553.7 224.5 535C207.34 534.67 190.18 534.34 172.5 534C172.5 517.5 172.5 501 172.5 484C184.225 483.969 184.225 483.969 196.188 483.938C198.648 483.928 201.108 483.919 203.643 483.91C205.58 483.907 207.516 483.905 209.512 483.902C212.489 483.894 212.489 483.894 215.526 483.886C217.988 483.943 217.988 483.943 220.5 484C222.15 484.33 223.8 484.66 225.5 485C225.5 466.52 225.5 448.04 225.5 429Z" fill="white"/>
<path d="M570.5 313C576.44 313.99 576.44 313.99 582.5 315C582.5 315.66 582.5 316.32 582.5 317C584.81 317.33 587.12 317.66 589.5 318C591.109 318.454 592.717 318.907 594.375 319.375C596.912 320.179 596.912 320.179 599.5 321C602.47 321.99 605.44 322.98 608.5 324C610.48 324.66 612.46 325.32 614.5 326C614.5 326.66 614.5 327.32 614.5 328C617.14 328.33 619.78 328.66 622.5 329C624.109 329.619 625.717 330.237 627.375 330.875C629.066 331.576 630.758 332.278 632.5 333C634.232 333.536 635.965 334.073 637.75 334.625C640.101 335.306 640.101 335.306 642.5 336C644.48 336.66 646.46 337.32 648.5 338C652.218 339.239 652.218 339.239 656.012 340.504C658.213 341.238 658.213 341.238 660.459 341.986C662.02 342.506 663.58 343.027 665.188 343.562C667.59 344.364 667.59 344.364 670.041 345.182C671.658 345.721 673.275 346.261 674.941 346.816C676.554 347.354 678.167 347.892 679.829 348.446C682.141 349.215 682.141 349.215 684.5 350C687.149 350.875 689.798 351.751 692.527 352.652C694.87 353.427 697.212 354.202 699.625 355C701.69 355.681 703.755 356.361 705.883 357.062C707.736 357.702 709.59 358.341 711.5 359C713.086 359.639 714.671 360.279 716.305 360.938C718.019 361.618 719.734 362.299 721.5 363C725.075 364.212 725.075 364.212 728.723 365.449C731.289 366.291 733.856 367.133 736.5 368C738.871 368.79 741.241 369.58 743.684 370.395C747.274 371.591 747.274 371.591 750.938 372.812C753.53 373.676 756.122 374.54 758.793 375.43C762.608 376.702 762.608 376.702 766.5 378C769.928 379.149 769.928 379.149 773.426 380.32C775.513 381.019 777.6 381.718 779.75 382.438C781.591 383.055 783.432 383.672 785.328 384.309C787.888 385.146 787.888 385.146 790.5 386C792.207 386.507 793.913 387.013 795.672 387.535C797.265 388.019 798.858 388.502 800.5 389C803.14 389.99 805.78 390.98 808.5 392C810.004 392.544 811.509 393.088 813.059 393.648C815.474 394.503 815.474 394.503 817.938 395.375C819.678 395.985 821.418 396.594 823.211 397.223C824.956 397.809 826.702 398.396 828.5 399C830.142 399.494 831.785 399.987 833.477 400.496C834.99 400.931 836.503 401.365 838.062 401.812C840.517 402.534 842.971 403.256 845.5 404C846.49 404.66 847.48 405.32 848.5 406C850.728 406.639 852.955 407.279 855.25 407.938C857.642 408.618 860.035 409.299 862.5 410C864.81 410.99 867.12 411.98 869.5 413C872.14 413.66 874.78 414.32 877.5 415C880.47 415.99 883.44 416.98 886.5 418C888.48 418.66 890.46 419.32 892.5 420C894.48 420.66 896.46 421.32 898.5 422C901.47 422.99 904.44 423.98 907.5 425C909.418 425.619 911.336 426.238 913.312 426.875C915.354 427.576 917.396 428.277 919.5 429C921.356 429.804 923.213 430.609 925.125 431.438C928.281 432.706 928.281 432.706 931.5 434C933.047 434.46 934.594 434.92 936.188 435.395C937.817 435.842 939.446 436.289 941.125 436.75C943.889 437.493 946.653 438.235 949.5 439C950.16 439.33 950.82 439.66 951.5 440C951.17 441.32 950.84 442.64 950.5 444C949.118 445.155 947.736 446.31 946.312 447.5C944.394 448.985 942.476 450.47 940.5 452C939.323 452.994 938.146 453.988 936.934 455.012C935.11 456.584 935.11 456.584 933.25 458.188C931.023 460.106 928.795 462.024 926.5 464C923.53 466.475 923.53 466.475 920.5 469C917.994 471.011 917.994 471.011 915.438 473.062C912.498 475.507 912.498 475.507 909.5 478C907.273 480.062 905.045 482.125 902.75 484.25C900.688 486.148 898.625 488.045 896.5 490C894.19 491.65 891.88 493.3 889.5 495C888.84 495 888.18 495 887.5 495C887.5 495.66 887.5 496.32 887.5 497C886.118 498.093 884.736 499.186 883.312 500.312C881.724 501.529 880.136 502.746 878.5 504C876.85 505.65 875.2 507.3 873.5 509C871.85 510.361 870.2 511.723 868.5 513.125C866.52 514.734 864.54 516.342 862.5 518C860.334 519.815 858.169 521.63 855.938 523.5C853.813 525.315 851.689 527.13 849.5 529C847.809 530.526 846.117 532.053 844.375 533.625C842.766 535.069 841.158 536.512 839.5 538C837.561 539.609 835.622 541.217 833.625 542.875C831.934 544.236 830.242 545.598 828.5 547C827.18 547.99 825.86 548.98 824.5 550C823.84 550 823.18 550 822.5 550C821.84 551.32 821.18 552.64 820.5 554C818.871 555.361 817.241 556.723 815.562 558.125C813.562 559.734 811.561 561.342 809.5 563C807.706 564.65 805.911 566.3 804.062 568C802.227 569.65 800.391 571.3 798.5 573C796.355 574.629 794.21 576.259 792 577.938C789.277 579.948 789.277 579.948 786.5 582C785.51 582.99 784.52 583.98 783.5 585C782.84 585 782.18 585 781.5 585C781.5 585.66 781.5 586.32 781.5 587C779.489 588.64 779.489 588.64 777.438 590.312C775.478 591.859 773.519 593.406 771.5 595C770.306 596.024 769.113 597.047 767.883 598.102C766.622 599.202 765.361 600.303 764.062 601.438C762.142 603.112 762.142 603.112 760.184 604.82C758.968 605.87 757.752 606.919 756.5 608C754.561 609.588 752.622 611.176 750.625 612.812C748.934 614.194 747.242 615.576 745.5 617C743.829 618.506 742.159 620.011 740.438 621.562C739.138 622.697 737.839 623.831 736.5 625C735.84 625 735.18 625 734.5 625C734.5 625.66 734.5 626.32 734.5 627C732.85 628.32 731.2 629.64 729.5 631C728.84 631 728.18 631 727.5 631C727.5 631.66 727.5 632.32 727.5 633C726.324 634.052 725.149 635.104 723.938 636.188C722.473 637.446 721.009 638.704 719.5 640C718.324 641.134 717.149 642.269 715.938 643.438C714.803 644.613 713.669 645.789 712.5 647C711.51 648.155 710.52 649.31 709.5 650.5C708.18 651.985 706.86 653.47 705.5 655C704.311 656.21 703.123 657.421 701.898 658.668C700.571 659.994 699.243 661.321 697.875 662.688C696.604 663.949 695.333 665.211 694.023 666.512C692.279 668.238 692.279 668.238 690.5 670C688.85 671.65 687.2 673.3 685.5 675C683.561 676.568 681.622 678.135 679.625 679.75C677.274 681.483 674.922 683.215 672.5 685C668.695 687.382 668.695 687.382 664.812 689.812C662.399 691.194 659.986 692.576 657.5 694C655.747 694.928 653.994 695.856 652.188 696.812C650.641 697.534 649.094 698.256 647.5 699C645.932 699.701 644.365 700.402 642.75 701.125C641.018 701.744 639.285 702.362 637.5 703C634.004 703.835 634.004 703.835 630.438 704.688C628.148 705.121 625.859 705.554 623.5 706C620.53 706.33 617.56 706.66 614.5 707C611.427 707.103 608.354 707.206 605.188 707.312C603.45 707.303 601.712 707.294 599.922 707.285C598.133 707.191 596.343 707.097 594.5 707C591.847 706.627 591.847 706.627 589.141 706.246C587.424 705.917 585.707 705.589 583.938 705.25C582.281 704.879 580.625 704.508 578.918 704.125C577.46 703.754 576.002 703.383 574.5 703C572.602 702.422 570.705 701.845 568.75 701.25C567.018 700.508 565.285 699.765 563.5 699C559.478 697.113 559.478 697.113 555.375 695.188C552.776 693.806 550.178 692.424 547.5 691C545.891 689.866 544.283 688.731 542.625 687.562C541.264 686.387 539.902 685.211 538.5 684C536.85 682.556 535.2 681.112 533.5 679.625C531.85 678.099 530.2 676.573 528.5 675C526.994 673.577 525.489 672.154 523.938 670.688C522.473 669.141 521.009 667.594 519.5 666C517.118 662.968 517.118 662.968 514.688 659.875C513.306 657.936 511.924 655.997 510.5 654C509.18 651.69 507.86 649.38 506.5 647C506.5 646.01 506.5 645.02 506.5 644C504.624 643.939 502.749 643.879 500.816 643.816C498.258 643.733 495.699 643.649 493.062 643.562C490.334 643.471 487.605 643.379 484.793 643.285C482.056 643.191 479.32 643.097 476.5 643C474.145 642.916 471.79 642.832 469.363 642.746C467.222 642.665 465.081 642.584 462.875 642.5C460.965 642.428 459.054 642.356 457.086 642.281C455.243 642.188 453.399 642.096 451.5 642C449.623 641.834 447.746 641.667 445.812 641.496C442.688 641.251 442.688 641.251 439.5 641C436.894 640.919 434.287 640.838 431.602 640.754C428.804 640.691 426.007 640.628 423.125 640.562C420.333 640.502 417.541 640.441 414.664 640.379C411.97 640.254 409.276 640.129 406.5 640C403.847 639.658 401.194 639.317 398.461 638.965C396.494 638.646 394.527 638.328 392.5 638C392.5 637.34 392.5 636.68 392.5 636C395.47 634.02 395.47 634.02 398.5 632C399.676 630.804 400.851 629.608 402.062 628.375C403.197 627.261 404.331 626.147 405.5 625C407.15 624.34 408.8 623.68 410.5 623C410.5 622.34 410.5 621.68 410.5 621C412.81 619.35 415.12 617.7 417.5 616C419.15 614.35 420.8 612.7 422.5 611C425.47 609.02 425.47 609.02 428.5 607C430.708 606.822 432.916 606.644 435.191 606.461C437.789 606.433 440.386 606.404 443.062 606.375C445.642 606.341 448.221 606.308 450.879 606.273C453.394 606.183 455.909 606.093 458.5 606C460.784 605.698 463.068 605.397 465.422 605.086C467.428 604.728 469.433 604.369 471.5 604C475.8 603.134 475.8 603.134 480.188 602.25C484.302 601.136 484.302 601.136 488.5 600C490.294 599.072 492.089 598.144 493.938 597.188C495.443 596.136 496.949 595.084 498.5 594C500.851 592.422 500.851 592.422 503.25 590.812C504.982 589.554 506.715 588.296 508.5 587C510.769 585.226 513.037 583.453 515.375 581.625C518.902 578.841 518.902 578.841 522.5 576C524.562 574.453 526.625 572.906 528.75 571.312C530.648 569.889 532.545 568.466 534.5 567C537.223 564.834 537.223 564.834 540 562.625C541.485 561.429 542.97 560.232 544.5 559C545.82 558.01 547.14 557.02 548.5 556C549.16 556 549.82 556 550.5 556C550.5 555.34 550.5 554.68 550.5 554C552.15 553.01 553.8 552.02 555.5 551C555.83 548.69 556.16 546.38 556.5 544C555.51 539.545 555.51 539.545 554.5 535C554.376 532.793 554.253 530.586 554.125 528.312C554.311 524.693 554.311 524.693 554.5 521C555.057 518.607 555.614 516.215 556.188 513.75C556.951 511.523 557.714 509.295 558.5 507C559.263 505.247 560.026 503.494 560.812 501.688C562.143 499.367 562.143 499.367 563.5 497C564.511 495.494 565.521 493.989 566.562 492.438C567.862 490.973 569.161 489.509 570.5 488C573.377 485.649 573.377 485.649 576.312 483.25C578.354 481.848 580.396 480.445 582.5 479C584.191 478.051 585.883 477.102 587.625 476.125C589.234 475.424 590.842 474.723 592.5 474C593.964 473.402 595.429 472.804 596.938 472.188C598.773 471.796 600.609 471.404 602.5 471C607.141 470.783 607.141 470.783 611.875 470.562C613.524 470.592 615.172 470.622 616.871 470.652C618.399 470.767 619.926 470.882 621.5 471C624.687 471.804 624.687 471.804 627.938 472.625C630.691 473.801 630.691 473.801 633.5 475C635.542 475.908 637.584 476.815 639.688 477.75C641.606 478.822 643.524 479.895 645.5 481C647.047 482.176 648.594 483.351 650.188 484.562C651.611 486.027 653.034 487.491 654.5 489C656.171 491.248 657.841 493.496 659.562 495.812C661.512 498.875 661.512 498.875 663.5 502C663.5 502.99 663.5 503.98 663.5 505C664.758 504.773 666.016 504.546 667.312 504.312C669.354 503.879 671.396 503.446 673.5 503C675.022 502.612 676.545 502.224 678.113 501.824C679.767 501.387 681.421 500.95 683.125 500.5C684.705 500.077 686.286 499.654 687.914 499.219C690.184 498.615 690.184 498.615 692.5 498C695.14 497.34 697.78 496.68 700.5 496C702.559 495.416 704.617 494.832 706.738 494.23C709.073 493.556 711.407 492.882 713.812 492.188C716.278 491.48 718.744 490.772 721.285 490.043C723.666 489.369 726.047 488.695 728.5 488C730.499 487.46 732.499 486.92 734.559 486.363C736.272 485.913 737.985 485.464 739.75 485C743.586 484.01 743.586 484.01 747.5 483C748.16 480.36 748.82 477.72 749.5 475C750.016 473.391 750.531 471.783 751.062 470.125C751.867 468.434 752.671 466.742 753.5 465C754.944 463.226 756.388 461.452 757.875 459.625C759.401 458.099 760.927 456.572 762.5 455C764.48 453.68 766.46 452.36 768.5 451C770.129 450.258 771.759 449.515 773.438 448.75C775.438 448.173 777.439 447.595 779.5 447C781.975 446.835 784.45 446.67 787 446.5C789.475 446.665 791.95 446.83 794.5 447C796.439 447.516 798.378 448.031 800.375 448.562C802.066 449.367 803.758 450.171 805.5 451C807.068 452.052 808.635 453.104 810.25 454.188C811.652 455.446 813.055 456.704 814.5 458C815.779 459.506 817.057 461.011 818.375 462.562C819.406 464.027 820.438 465.491 821.5 467C822.49 468.98 823.48 470.96 824.5 473C825.16 475.97 825.82 478.94 826.5 482C826.5 484.31 826.5 486.62 826.5 489C826.149 490.877 825.799 492.754 825.438 494.688C824.798 496.771 824.159 498.854 823.5 501C821.891 504.156 821.891 504.156 820.25 507.375C819.013 509.231 817.775 511.087 816.5 513C814.19 514.98 811.88 516.96 809.5 519C807.829 519.928 806.159 520.856 804.438 521.812C802.808 522.534 801.179 523.256 799.5 524C797.52 524.33 795.54 524.66 793.5 525C790.757 525.103 788.014 525.206 785.188 525.312C780.887 525.158 780.887 525.158 776.5 525C774.087 524.258 774.087 524.258 771.625 523.5C769.583 522.262 769.583 522.262 767.5 521C765.603 519.618 763.705 518.236 761.75 516.812C760.017 515.554 758.285 514.296 756.5 513C754.85 512.67 753.2 512.34 751.5 512C748.963 512.681 746.426 513.361 743.812 514.062C742.221 514.528 740.629 514.993 738.988 515.473C737.177 515.977 735.366 516.481 733.5 517C731.41 517.494 729.321 517.987 727.168 518.496C724.968 518.992 722.767 519.489 720.5 520C718.282 520.504 716.063 521.008 713.777 521.527C711.706 522.013 709.634 522.499 707.5 523C705.851 523.434 704.203 523.869 702.504 524.316C701.038 524.728 699.573 525.139 698.062 525.562C693.824 526.769 693.824 526.769 689.5 528C687.743 528.469 685.986 528.938 684.176 529.422C682.427 529.881 680.677 530.34 678.875 530.812C676.111 531.534 673.348 532.256 670.5 533C670.273 534.732 670.046 536.465 669.812 538.25C669.379 540.477 668.946 542.705 668.5 545C667.819 546.98 667.139 548.96 666.438 551C665.468 552.98 664.499 554.96 663.5 557C662.098 559.062 660.695 561.125 659.25 563.25C657.682 565.148 656.115 567.045 654.5 569C652.365 571.166 652.365 571.166 650.188 573.375C648.641 574.571 647.094 575.767 645.5 577C642.53 578.64 642.53 578.64 639.5 580.312C637.52 581.199 635.54 582.086 633.5 583C630.53 583.99 627.56 584.98 624.5 586C622.749 586.131 620.999 586.263 619.195 586.398C617.357 586.391 615.519 586.383 613.625 586.375C611.691 586.344 609.758 586.313 607.766 586.281C606.028 586.188 604.29 586.096 602.5 586C600.479 585.629 598.458 585.258 596.375 584.875C594.766 584.256 593.158 583.638 591.5 583C589.376 581.969 587.251 580.938 585.062 579.875C583.227 578.926 581.391 577.978 579.5 577C578.18 576.67 576.86 576.34 575.5 576C572.777 577.578 572.777 577.578 570 579.188C568.185 580.446 566.37 581.704 564.5 583C563.18 584.32 561.86 585.64 560.5 587C558.809 588.237 557.117 589.475 555.375 590.75C553.436 592.152 551.497 593.555 549.5 595C546.963 597.011 546.963 597.011 544.375 599.062C542.766 600.362 541.158 601.661 539.5 603C537.025 604.98 537.025 604.98 534.5 607C533.18 607.99 531.86 608.98 530.5 610C529.84 610 529.18 610 528.5 610C528.5 610.66 528.5 611.32 528.5 612C527.84 612 527.18 612 526.5 612C527.304 613.856 527.304 613.856 528.125 615.75C528.909 617.483 529.693 619.215 530.5 621C531.346 622.836 532.191 624.671 533.062 626.562C534.197 628.687 535.331 630.811 536.5 633C537.388 634.369 538.276 635.738 539.191 637.148C540.159 638.564 541.128 639.979 542.125 641.438C543.899 643.933 545.673 646.429 547.5 649C548.82 650.65 550.14 652.3 551.5 654C554.47 655.98 554.47 655.98 557.5 658C557.5 658.66 557.5 659.32 557.5 660C559.15 660.66 560.8 661.32 562.5 662C565.47 663.98 565.47 663.98 568.5 666C570.707 666.846 572.914 667.691 575.188 668.562C577.601 669.367 580.014 670.171 582.5 671C584.235 671.536 585.97 672.073 587.758 672.625C590.6 673.306 590.6 673.306 593.5 674C595.329 674.143 597.158 674.286 599.043 674.434C600.906 674.435 602.768 674.436 604.688 674.438C606.677 674.413 608.666 674.389 610.715 674.363C613.578 674.183 613.578 674.183 616.5 674C619.553 673.381 622.605 672.763 625.75 672.125C627.977 671.424 630.205 670.723 632.5 670C633.49 669.34 634.48 668.68 635.5 668C638.47 667.01 641.44 666.02 644.5 665C646.624 663.783 648.749 662.566 650.938 661.312C653.691 659.673 653.691 659.673 656.5 658C657.16 658 657.82 658 658.5 658C658.5 657.34 658.5 656.68 658.5 656C659.882 654.907 661.264 653.814 662.688 652.688C664.276 651.471 665.864 650.254 667.5 649C669.15 647.35 670.8 645.7 672.5 644C673.16 644 673.82 644 674.5 644C675.16 642.68 675.82 641.36 676.5 640C677.49 639.092 678.48 638.185 679.5 637.25C680.82 635.848 682.14 634.445 683.5 633C684.374 631.699 685.248 630.399 686.148 629.059C687.048 627.616 687.948 626.174 688.875 624.688C690.401 622.151 691.927 619.614 693.5 617C693.83 616.34 694.16 615.68 694.5 615C695.16 615 695.82 615 696.5 615C696.83 613.35 697.16 611.7 697.5 610C698.284 608.309 699.068 606.617 699.875 604.875C700.741 602.936 701.608 600.997 702.5 599C703.212 596.732 703.212 596.732 703.938 594.418C704.453 592.3 704.969 590.182 705.5 588C705.79 586.481 706.079 584.962 706.377 583.397C706.678 581.698 706.979 579.998 707.289 578.246C707.591 576.486 707.892 574.726 708.203 572.912C708.507 571.105 708.812 569.299 709.125 567.438C709.593 564.675 709.593 564.675 710.07 561.857C710.519 559.234 710.519 559.234 710.977 556.559C711.479 553.734 711.982 550.91 712.5 548C712.83 547.34 713.16 546.68 713.5 546C716.14 545.34 718.78 544.68 721.5 544C723.975 543.196 726.45 542.391 729 541.562C731.475 540.717 733.95 539.871 736.5 539C739.14 538.01 741.78 537.02 744.5 536C745.49 536 746.48 536 747.5 536C747.5 535.34 747.5 534.68 747.5 534C749.48 534 751.46 534 753.5 534C755.191 534.928 756.883 535.856 758.625 536.812C760.564 537.864 762.503 538.916 764.5 540C767.192 540.928 767.192 540.928 769.938 541.875C772.103 542.246 774.269 542.617 776.5 543C778.079 543.093 779.658 543.186 781.285 543.281C783.006 543.312 784.727 543.343 786.5 543.375C789.081 543.329 789.081 543.329 791.715 543.281C793.294 543.188 794.873 543.096 796.5 543C798.666 542.629 800.831 542.258 803.062 541.875C804.857 541.256 806.651 540.637 808.5 540C810.356 539.113 812.212 538.226 814.125 537.312C815.899 536.219 817.672 535.126 819.5 534C821.191 532.824 822.883 531.649 824.625 530.438C827.038 528.241 827.038 528.241 829.5 526C831.913 522.844 831.913 522.844 834.375 519.625C835.736 517.439 837.098 515.253 838.5 513C839.325 511.206 840.15 509.411 841 507.562C841.742 505.304 841.742 505.304 842.5 503C842.83 501.02 843.16 499.04 843.5 497C843.601 494.502 843.601 494.502 843.703 491.953C843.719 490.071 843.734 488.189 843.75 486.25C843.776 484.378 843.802 482.507 843.828 480.578C843.72 478.737 843.612 476.897 843.5 475C843.053 473.24 842.605 471.481 842.145 469.668C841.602 468.128 841.059 466.587 840.5 465C839.654 463.041 838.809 461.081 837.938 459.062C836.803 457.062 835.669 455.061 834.5 453C832.149 450.123 832.149 450.123 829.75 447.188C828.017 445.476 826.285 443.764 824.5 442C822.85 440.701 821.2 439.401 819.5 438.062C817.85 437.052 816.2 436.041 814.5 435C812.829 434.237 811.159 433.474 809.438 432.688C807.808 432.131 806.179 431.574 804.5 431C801.53 430.34 798.56 429.68 795.5 429C792.509 428.856 789.519 428.711 786.438 428.562C784.789 428.582 783.14 428.601 781.441 428.621C779.811 428.746 778.18 428.871 776.5 429C773.654 429.701 770.807 430.402 767.875 431.125C765.441 432.074 763.008 433.022 760.5 434C758.85 434.949 757.2 435.897 755.5 436.875C754.18 437.906 752.86 438.938 751.5 440C750.159 441.031 748.819 442.062 747.438 443.125C746.138 444.404 744.839 445.682 743.5 447C742.098 448.959 740.695 450.919 739.25 452.938C737.394 455.938 737.394 455.938 735.5 459C733.52 462.96 733.52 462.96 731.5 467C730.84 467.66 730.18 468.32 729.5 469C725.757 469.742 725.757 469.742 721.938 470.5C719.153 470.995 716.369 471.49 713.5 472C710.53 472.66 707.56 473.32 704.5 474C702.85 472.35 701.2 470.7 699.5 469C697.561 466.773 695.622 464.545 693.625 462.25C690.593 458.661 690.593 458.661 687.5 455C686.366 453.536 685.231 452.071 684.062 450.562C682.887 449.057 681.711 447.551 680.5 446C679.511 444.846 678.523 443.693 677.504 442.504C676.389 441.224 675.274 439.944 674.125 438.625C673.006 437.344 671.887 436.062 670.734 434.742C669.667 433.507 668.6 432.272 667.5 431C665.809 428.938 664.117 426.875 662.375 424.75C661.096 423.183 659.818 421.615 658.5 420C657.51 419.01 656.52 418.02 655.5 417C655.5 416.34 655.5 415.68 655.5 415C654.84 415 654.18 415 653.5 415C651.551 412.68 651.551 412.68 649.562 410.312C647.892 408.229 646.221 406.146 644.5 404C642.582 401.731 640.664 399.463 638.688 397.125C636.976 395.104 635.264 393.082 633.5 391C632.18 389.35 630.86 387.7 629.5 386C627.025 383.525 627.025 383.525 624.5 381C623.304 379.515 622.107 378.03 620.875 376.5C618.709 373.778 618.709 373.778 616.5 371C614.706 368.876 612.911 366.751 611.062 364.562C608.309 361.314 608.309 361.314 605.5 358C603.211 355.216 603.211 355.216 600.875 352.375C598.709 349.714 598.709 349.714 596.5 347C594.891 345.02 593.283 343.04 591.625 341C590.264 339.35 588.902 337.7 587.5 336C586.51 335.01 585.52 334.02 584.5 333C584.5 332.34 584.5 331.68 584.5 331C583.84 331 583.18 331 582.5 331C581.51 329.35 580.52 327.7 579.5 326C577.52 324.02 577.52 324.02 575.5 322C574.51 320.68 573.52 319.36 572.5 318C572.5 317.01 572.5 316.02 572.5 315C571.84 315 571.18 315 570.5 315C570.5 314.34 570.5 313.68 570.5 313Z" fill="#7C3AED"/>
<path d="M794.5 447L800.375 448.562L805.5 451L810.25 454.188L814.5 458L818.375 462.562L821.5 467L824.5 473L826.5 482V489L825.438 494.688L823.5 501L820.25 507.375L816.5 513L809.5 519L804.438 521.812L799.5 524L793.5 525L785.188 525.312L776.5 525L771.625 523.5L767.5 521L761.75 516.812L756.5 513L751.5 512L743.812 514.062L738.988 515.473L733.5 517L727.168 518.496L720.5 520L713.777 521.527L707.5 523L702.504 524.316L698.062 525.562L689.5 528L684.176 529.422L678.875 530.812L670.5 533L669.812 538.25L668.5 545L666.438 551L663.5 557L659.25 563.25L654.5 569L650.188 573.375L645.5 577L639.5 580.312L633.5 583L624.5 586L619.195 586.398L613.625 586.375L607.766 586.281L602.5 586L596.375 584.875L591.5 583L585.062 580.125L579.5 577L575.5 572L569.5 567L568.5 563H566.5L564.5 557H562.5L559.5 551V549L556.5 550V544L554.5 535L554.125 528.312L554.5 521L556.188 513.75L558.5 507L560.812 501.688L563.5 497L566.562 492.438L570.5 488L576.312 483.25L582.5 479L587.625 476.125L592.5 474L596.938 472.188L602.5 471L611.875 470.562L616.871 470.652L621.5 471L627.938 472.625L633.5 475L639.688 477.75L645.5 481L650.188 484.562L654.5 489L659.562 495.812L663.5 502V505L667.312 504.312L673.5 503L678.113 501.824L683.125 500.5L687.914 499.219L692.5 498L700.5 496L706.738 494.23L713.812 492.188L721.285 490.043L728.5 488L734.559 486.363L739.75 485L747.5 483L749.5 475L751.062 470.125L753.5 465L757.875 459.625L762.5 455L768.5 451L773.438 448.75L779.5 447L787 446.5L794.5 447ZM607.5 499L602.5 500.5L597.5 503L592.688 506.688L588.5 511L585.438 515L583.5 520L583 528.125L583.5 536L586.5 543L589.938 547.562L594.5 552L600.312 555.562L606.5 558L612.312 558.5L617.5 558L624.5 556L629.688 552.688L634.5 549L638.5 544L641.5 537L642 529.188L641.5 521L639.562 515.5L636.5 511L632.375 506.625L627.5 503L622 500.5L616.5 499H607.5Z" fill="white"/>
<path d="M570.5 313C576.44 313.99 576.44 313.99 582.5 315C581.18 315.33 579.86 315.66 578.5 316C577.51 316 576.52 316 575.5 316C575.17 317.32 574.84 318.64 574.5 320C573.84 319.34 573.18 318.68 572.5 318C572.5 317.01 572.5 316.02 572.5 315C571.84 315 571.18 315 570.5 315C570.5 314.34 570.5 313.68 570.5 313Z" fill="#7C3AED"/>
</svg>
